<svg xmlns="http://www.w3.org/2000/svg" width="12.328" height="11.688" viewBox="0 0 12.328 11.688"><defs><style>.a{fill:#af2822;}</style></defs><g transform="translate(0 -0.831)"><g transform="translate(0 0.831)"><path class="a" d="M5.421.831a.747.747,0,0,0-.748.747V7.784a.748.748,0,0,0,.748.747H8.5a3.3,3.3,0,0,1-.72,2.418c-.714.7-1.94.679-3.238.658-.224,0-.449-.008-.67-.008a1.917,1.917,0,0,1-1.918-2.03V8.149A1.962,1.962,0,0,0,3.007,6.287,1.771,1.771,0,0,0,1.5,4.336,1.773,1.773,0,0,0,0,6.288a1.972,1.972,0,0,0,1.03,1.85V9.572A2.793,2.793,0,0,0,3.86,12.5c.216,0,.446,0,.665.008s.454.008.68.008A4.353,4.353,0,0,0,8.412,11.6,4.114,4.114,0,0,0,9.4,8.534H11.58a.747.747,0,0,0,.747-.748V1.578A.747.747,0,0,0,11.58.831H5.421Zm3.215,6.54a2.7,2.7,0,1,1,2.7-2.7A2.7,2.7,0,0,1,8.636,7.371Z" transform="translate(0 -0.831)"/><path class="a" d="M19.185,5.561a2.03,2.03,0,1,0,2.03,2.03A2.032,2.032,0,0,0,19.185,5.561Zm0,3.583a1.553,1.553,0,1,1,1.554-1.553A1.555,1.555,0,0,1,19.185,9.144Z" transform="translate(-10.539 -3.737)"/><circle class="a" cx="0.126" cy="0.126" r="0.126" transform="translate(9.41 2.828)"/><path class="a" d="M19.816,12.826a.126.126,0,1,0,.179,0A.125.125,0,0,0,19.816,12.826Z" transform="translate(-12.151 -8.177)"/><circle class="a" cx="0.126" cy="0.126" r="0.126" transform="translate(9.78 3.72)"/><circle class="a" cx="0.126" cy="0.126" r="0.126" transform="translate(7.258 3.72)"/><path class="a" d="M24.439,12.826a.127.127,0,1,0,.179,0A.126.126,0,0,0,24.439,12.826Z" transform="translate(-14.991 -8.177)"/><circle class="a" cx="0.126" cy="0.126" r="0.126" transform="translate(7.627 2.828)"/><path class="a" d="M22.054,9.032V8.567a.161.161,0,0,0-.322,0V9.03a.312.312,0,0,0-.2.309.345.345,0,0,0,.344.348.353.353,0,0,0,.354-.348A.379.379,0,0,0,22.054,9.032Z" transform="translate(-13.23 -5.485)"/><circle class="a" cx="0.126" cy="0.126" r="0.126" transform="translate(8.519 2.458)"/><circle class="a" cx="0.127" cy="0.127" r="0.127" transform="translate(8.518 4.98)"/></g></g></svg>