<svg xmlns="http://www.w3.org/2000/svg" width="12.256" height="10.58" viewBox="0 0 12.256 10.58"><defs><style>.a{fill:#af2822;}</style></defs><g transform="translate(0 -0.935)"><g transform="translate(0 -34.082)"><path class="a" d="M4.1,40.464l.837-1.587a.359.359,0,0,1,.663.069l.768,2.678.684-1a.359.359,0,0,1,.3-.157H11.8a3.67,3.67,0,0,0-5.668-4.5,3.67,3.67,0,0,0-5.668,4.5Z"/><path class="a" d="M47.4,244.45l-1.008,1.478a.359.359,0,0,1-.642-.1l-.733-2.555-.522.989a.359.359,0,0,1-.318.192H40.834q.1.106.2.2l4.277,3.949a.988.988,0,0,0,1.363-.022l4.254-3.927q.106-.1.2-.2Z" transform="translate(-39.857 -203.268)"/></g></g></svg>