<svg width="37" height="37" viewBox="0 0 37 37" fill="none" xmlns="http://www.w3.org/2000/svg">
<circle cx="18.5" cy="18.5" r="18.5" fill="#D2EDD3"/>
<path d="M22.7752 26.4164C19.543 26.4122 16.4445 25.1264 14.159 22.8409C11.8735 20.5555 10.5877 17.4569 10.5835 14.2248C10.5835 13.2589 10.9672 12.3327 11.6501 11.6497C12.3331 10.9668 13.2593 10.5831 14.2252 10.5831C14.4297 10.5815 14.6339 10.6001 14.8347 10.6385C15.029 10.6673 15.2199 10.715 15.4047 10.781C15.5348 10.8266 15.6506 10.9054 15.7409 11.0095C15.8311 11.1137 15.8927 11.2396 15.9193 11.3748L17.0039 16.1248C17.0331 16.2537 17.0296 16.3879 16.9937 16.5151C16.9577 16.6423 16.8905 16.7585 16.7981 16.8531C16.6952 16.9639 16.6872 16.9718 15.7135 17.4785C16.4933 19.1892 17.8614 20.563 19.5689 21.3498C20.0835 20.3681 20.0914 20.3602 20.2022 20.2573C20.2968 20.1649 20.413 20.0976 20.5402 20.0617C20.6674 20.0257 20.8016 20.0222 20.9306 20.0514L25.6806 21.136C25.8114 21.1664 25.9324 21.2295 26.0321 21.3196C26.1319 21.4096 26.207 21.5235 26.2506 21.6506C26.3174 21.8385 26.3677 22.0319 26.401 22.2285C26.4329 22.4275 26.4487 22.6287 26.4485 22.8302C26.4339 23.7919 26.0394 24.7088 25.3512 25.3807C24.663 26.0526 23.7369 26.4249 22.7752 26.4164Z" fill="#3B823E"/>
</svg>
