<svg width="37" height="37" viewBox="0 0 37 37" fill="none" xmlns="http://www.w3.org/2000/svg">
<circle cx="18.5" cy="18.5" r="18.5" fill="#D2EDD3"/>
<path d="M22.775 26.4164C19.5429 26.4122 16.4443 25.1264 14.1589 22.8409C11.8734 20.5555 10.5876 17.4569 10.5834 14.2248C10.5834 13.2589 10.967 12.3327 11.65 11.6497C12.3329 10.9668 13.2592 10.5831 14.225 10.5831C14.4296 10.5815 14.6337 10.6001 14.8346 10.6385C15.0288 10.6673 15.2197 10.715 15.4046 10.781C15.5347 10.8266 15.6505 10.9054 15.7408 11.0095C15.831 11.1137 15.8925 11.2396 15.9192 11.3748L17.0038 16.1248C17.033 16.2537 17.0295 16.3879 16.9935 16.5151C16.9576 16.6423 16.8904 16.7585 16.798 16.8531C16.695 16.9639 16.6871 16.9718 15.7134 17.4785C16.4932 19.1892 17.8613 20.563 19.5688 21.3498C20.0834 20.3681 20.0913 20.3602 20.2021 20.2573C20.2967 20.1649 20.4129 20.0976 20.5401 20.0617C20.6673 20.0257 20.8015 20.0222 20.9305 20.0514L25.6805 21.136C25.8113 21.1664 25.9323 21.2295 26.032 21.3196C26.1317 21.4096 26.2069 21.5235 26.2505 21.6506C26.3173 21.8385 26.3676 22.0319 26.4009 22.2285C26.4327 22.4275 26.4486 22.6287 26.4484 22.8302C26.4338 23.7919 26.0393 24.7088 25.3511 25.3807C24.6629 26.0526 23.7368 26.4249 22.775 26.4164Z" fill="#3B823E"/>
</svg>
