<svg width="18" height="19" viewBox="0 0 18 19" fill="none" xmlns="http://www.w3.org/2000/svg">
<g clip-path="url(#clip0)">
<path d="M5.22 11.4247V5.84473H1.8C0.81 5.84473 0 6.65473 0 7.64473V13.0447C0 14.0347 0.81 14.8447 1.8 14.8447H2.7V17.5447L5.4 14.8447H9.9C10.89 14.8447 11.7 14.0347 11.7 13.0447V11.4067C11.6408 11.4194 11.5805 11.4258 11.52 11.4256H5.22V11.4247ZM16.2 1.34473H8.1C7.11 1.34473 6.3 2.15473 6.3 3.14473V10.3447H12.6L15.3 13.0447V10.3447H16.2C17.19 10.3447 18 9.53563 18 8.54473V3.14473C18 2.15473 17.19 1.34473 16.2 1.34473Z" fill="#74C946"/>
</g>
<defs>
<clipPath id="clip0">
<rect width="18" height="18" fill="white" transform="translate(0 0.444824)"/>
</clipPath>
</defs>
</svg>
