<svg xmlns="http://www.w3.org/2000/svg" width="11.415" height="11.257" viewBox="0 0 11.415 11.257"><defs><style>.a{fill:#af2822;}.b{fill:#d47589;}.c{fill:#741b13;}.d{fill:#fcda55;}.e{fill:#d9bc49;}</style></defs><g transform="translate(0 -0.499)"><path class="a" d="M1.468,11.653a.345.345,0,0,0,.551-.086A13.789,13.789,0,0,1,3.857,8.852,10.614,10.614,0,0,1,8.121,5.707l.691-.265a11.75,11.75,0,0,1,2.5-.562.113.113,0,0,0,.1-.112V2.436a.112.112,0,0,0-.121-.112h0a14.167,14.167,0,0,0-4.024.986A4.892,4.892,0,0,1,8.675.778.161.161,0,0,0,8.564.5H6.173a.82.82,0,0,0-.707.4l0,0A6.2,6.2,0,0,0,4.7,4.7,14.808,14.808,0,0,0,1.867,7.264a16.37,16.37,0,0,0-1.823,2.6.345.345,0,0,0,.056.413Zm0,0" transform="translate(0 0)"/><g transform="translate(0.761 1.696)"><path class="b" d="M80.218,382.445a.312.312,0,1,1-.312-.312A.312.312,0,0,1,80.218,382.445Zm0,0" transform="translate(-78.58 -374.822)"/><path class="b" d="M275.73,54.492a.312.312,0,1,1-.312-.312A.312.312,0,0,1,275.73,54.492Zm0,0" transform="translate(-269.734 -54.18)"/><path class="b" d="M338.066,187.476a.312.312,0,1,1-.312-.312A.312.312,0,0,1,338.066,187.476Zm0,0" transform="translate(-330.68 -184.199)"/><path class="b" d="M247.273,160.788a.312.312,0,1,1-.312-.312A.312.312,0,0,1,247.273,160.788Zm0,0" transform="translate(-241.911 -158.106)"/><path class="b" d="M208.363,269.152a.312.312,0,1,1-.312-.312A.312.312,0,0,1,208.363,269.152Zm0,0" transform="translate(-203.869 -264.054)"/><path class="b" d="M446.757,123.543a.312.312,0,1,1-.312-.312A.312.312,0,0,1,446.757,123.543Zm0,0" transform="translate(-436.948 -121.691)"/><path class="b" d="M34.781,410.46a.312.312,0,1,1-.312-.312A.312.312,0,0,1,34.781,410.46Zm0,0" transform="translate(-34.156 -402.212)"/><path class="b" d="M62.8,454.038a.312.312,0,1,1-.312-.312A.312.312,0,0,1,62.8,454.038Zm0,0" transform="translate(-61.547 -444.819)"/><path class="c" d="M68.6,82.373v1.3a.813.813,0,0,1-.68.8A11.581,11.581,0,0,0,66,84.953l-.691.265a10.612,10.612,0,0,0-4.263,3.146A13.643,13.643,0,0,0,59,91.507l.154.154a.345.345,0,0,0,.551-.086,13.789,13.789,0,0,1,1.838-2.715A10.613,10.613,0,0,1,65.8,85.714l.691-.265a11.751,11.751,0,0,1,2.5-.562.113.113,0,0,0,.1-.112V82.444a.112.112,0,0,0-.121-.112c-.118.009-.267.028-.375.041Zm0,0" transform="translate(-58.443 -81.704)"/></g><path class="d" d="M42.6,205.35c-.352.41-.663.816-.938,1.206.382-.016.274.169.711.045.215-.061.393-.321.645-.448.214-.108.532-.089.741-.26.187-.153.235-.462.4-.676.145-.191.435-.316.545-.564.1-.218,0-.517.061-.784.052-.232.27-.458.286-.731l-.053-.035a14.941,14.941,0,0,0-2.4,2.248Zm0,0" transform="translate(-40.732 -198.086)"/><path class="e" d="M45.046,203.136l-.053-.035q-.3.226-.6.47c-.037.252.039.525-.051.728-.11.248-.4.373-.545.565-.163.214-.21.523-.4.676-.209.171-.528.152-.741.26-.252.127-.429.387-.645.448a1.27,1.27,0,0,1-.164.037q-.1.136-.195.27c.382-.016.274.169.711.045.215-.061.393-.321.645-.448.213-.108.532-.089.741-.26.187-.153.235-.462.4-.676.145-.192.435-.316.545-.565.1-.218,0-.517.061-.784C44.812,203.636,45.03,203.409,45.046,203.136Zm0,0" transform="translate(-40.732 -198.085)"/><path class="d" d="M73.711,377.777a.312.312,0,1,1-.312-.312A.312.312,0,0,1,73.711,377.777Zm0,0" transform="translate(-71.458 -368.562)"/><path class="d" d="M269.222,49.824a.312.312,0,1,1-.312-.312A.312.312,0,0,1,269.222,49.824Zm0,0" transform="translate(-262.61 -47.92)"/><path class="d" d="M331.558,182.808a.312.312,0,1,1-.312-.312A.312.312,0,0,1,331.558,182.808Zm0,0" transform="translate(-323.556 -177.94)"/><path class="d" d="M240.769,156.117a.312.312,0,1,1-.312-.312A.312.312,0,0,1,240.769,156.117Zm0,0" transform="translate(-234.791 -151.844)"/><path class="d" d="M201.859,264.484a.312.312,0,1,1-.312-.312A.312.312,0,0,1,201.859,264.484Zm0,0" transform="translate(-196.749 -257.795)"/><path class="d" d="M440.25,118.874a.312.312,0,1,1-.312-.312A.312.312,0,0,1,440.25,118.874Zm0,0" transform="translate(-429.825 -115.431)"/><path class="d" d="M28.273,405.792a.312.312,0,1,1-.312-.312A.312.312,0,0,1,28.273,405.792Zm0,0" transform="translate(-27.033 -395.952)"/><path class="d" d="M56.289,449.37a.312.312,0,1,1-.312-.312A.312.312,0,0,1,56.289,449.37Zm0,0" transform="translate(-54.424 -438.559)"/><path class="e" d="M104.763,325.361l.054-.006a13.749,13.749,0,0,1,1.382-1.9,14.569,14.569,0,0,1,1.127-1.168l-.013-.008a2.031,2.031,0,0,0-.646.043c-.248.11-.373.4-.564.545-.215.163-.523.21-.676.4-.171.209-.152.528-.26.741-.127.252-.387.429-.448.645C104.594,325.087,104.779,324.979,104.763,325.361Zm0,0" transform="translate(-102.342 -314.603)"/></g></svg>