<svg width="16" height="16" viewBox="0 0 16 16" fill="none" xmlns="http://www.w3.org/2000/svg">
<circle cx="8" cy="8" r="8" fill="#DEEFD5"/>
<path d="M12.1326 6.04504C12.1326 6.17095 12.1067 6.26354 12.0549 6.32279C12.0104 6.38204 11.9363 6.41167 11.8326 6.41167H11.3771C11.3845 6.47092 11.3883 6.5598 11.3883 6.67831L11.3771 7.02272H11.8326C11.9363 7.02272 12.0104 7.05235 12.0549 7.1116C12.1067 7.17085 12.1326 7.26344 12.1326 7.38935V7.46712C12.1326 7.59303 12.1067 7.68562 12.0549 7.74487C12.0104 7.79672 11.9363 7.82264 11.8326 7.82264H11.1772C10.9476 8.3337 10.6068 8.68922 10.155 8.8892C9.70323 9.08177 9.28846 9.17806 8.91072 9.17806H7.54419V11.7C7.54419 11.9148 7.34791 12.0222 6.95536 12.0222H6.67761C6.28506 12.0222 6.08878 11.9148 6.08878 11.7V7.82264H5.5555C5.45181 7.82264 5.37404 7.79672 5.32219 7.74487C5.27775 7.68562 5.25553 7.59303 5.25553 7.46712V7.38935C5.25553 7.26344 5.27775 7.17085 5.32219 7.1116C5.37404 7.05235 5.45181 7.02272 5.5555 7.02272H6.08878V6.41167H5.5555C5.45181 6.41167 5.37404 6.38204 5.32219 6.32279C5.27775 6.26354 5.25553 6.17095 5.25553 6.04504V5.96727C5.25553 5.84136 5.27775 5.75248 5.32219 5.70063C5.37404 5.64138 5.45181 5.61175 5.5555 5.61175H6.08878V4.63407C6.08878 4.49334 6.11841 4.38965 6.17766 4.32299C6.24432 4.25633 6.34801 4.223 6.48874 4.223H8.79962C9.31809 4.223 9.79952 4.32299 10.2439 4.52297C10.6957 4.71554 11.0216 5.07847 11.2216 5.61175H11.8326C11.9363 5.61175 12.0104 5.64138 12.0549 5.70063C12.1067 5.75248 12.1326 5.84136 12.1326 5.96727V6.04504ZM8.78851 7.92263C9.06996 7.92263 9.32179 7.83005 9.54399 7.64488C9.7736 7.45971 9.8884 7.13752 9.8884 6.67831C9.8884 6.23391 9.7736 5.92283 9.54399 5.74507C9.32179 5.5599 9.05145 5.46732 8.73296 5.46732H7.54419V7.92263H8.78851Z" fill="#3B823E"/>
</svg>
