<svg xmlns="http://www.w3.org/2000/svg" width="16.231" height="16.232" viewBox="0 0 16.231 16.232"><defs><style>.a{fill:#a8a8a8;}</style></defs><g transform="translate(0 6.696)"><path class="a" d="M10.145,213.3a.65.65,0,0,1-.609-.406L8.86,211.2l-1.42,4.329a.68.68,0,0,1-1.285,0L5.14,212.553l-.609.609a.571.571,0,0,1-.473.135H0V216a.639.639,0,0,0,.676.676H4.058v3.382a.639.639,0,0,0,.676.676H11.5a.639.639,0,0,0,.676-.676v-3.382h3.382a.639.639,0,0,0,.676-.676V213.3H10.145Z" transform="translate(0 -211.2)"/></g><path class="a" d="M15.556,4.058H12.174V.676A.639.639,0,0,0,11.5,0H4.734a.639.639,0,0,0-.676.676V4.058H.676A.639.639,0,0,0,0,4.734V7.44H3.787l1.15-1.15a.685.685,0,0,1,1.15.271l.676,2.1,1.42-4.193A.681.681,0,0,1,9.469,4.4l1.15,3.043h5.614V4.734A.639.639,0,0,0,15.556,4.058Z" transform="translate(0)"/></svg>