<svg width="24" height="24" viewBox="0 0 24 24" fill="none" xmlns="http://www.w3.org/2000/svg">
<g clip-path="url(#clip0)">
<path d="M11.9999 0L9.10254 12L11.9999 24C18.6274 24 23.9999 18.6274 23.9999 12C23.9999 5.37258 18.6274 0 11.9999 0Z" fill="#54BBFF"/>
<path d="M0 12C0 18.6274 5.37258 24 12 24V0C5.37258 0 0 5.37258 0 12Z" fill="#8DD2FF"/>
<path d="M12 1.44873V22.5513C17.8273 22.5513 22.5513 17.8274 22.5513 12C22.5513 6.17265 17.8273 1.44873 12 1.44873Z" fill="#0789DE"/>
<path d="M21.1027 12.0001C21.1027 6.17275 17.0273 1.44873 12.0001 1.44873C6.17275 1.44873 1.44873 6.17275 1.44873 12.0001C1.44873 17.8274 6.17275 22.5514 12.0001 22.5514C17.0273 22.5514 21.1027 17.8274 21.1027 12.0001Z" fill="#2EA2EF"/>
<path d="M12 7.38817C12.5334 7.38817 12.9658 6.95576 12.9658 6.42236C12.9658 5.88895 12.5334 5.45654 12 5.45654C11.4666 5.45654 11.0342 5.88895 11.0342 6.42236C11.0342 6.95576 11.4666 7.38817 12 7.38817Z" fill="white"/>
<path d="M12 8.83691C11.4666 8.83691 11.0342 9.26929 11.0342 9.80273V17.5774C11.0342 18.1107 11.4666 18.5432 12 18.5432C12.5334 18.5432 12.9658 18.1108 12.9658 17.5774V9.80273C12.9658 9.26929 12.5334 8.83691 12 8.83691Z" fill="white"/>
</g>
<defs>
<clipPath id="clip0">
<rect width="24" height="24" fill="white"/>
</clipPath>
</defs>
</svg>
