<svg xmlns="http://www.w3.org/2000/svg" width="16.249" height="16.249" viewBox="0 0 16.249 16.249"><defs><style>.a{fill:none;}.b{fill:#3b823e;}</style></defs><path class="a" d="M0,0H16.249V16.249H0Z"/><path class="b" d="M15.141,8.486,9.048,2.393A1.346,1.346,0,0,0,8.093,2H3.354A1.358,1.358,0,0,0,2,3.354V8.093a1.351,1.351,0,0,0,.4.961l6.093,6.093a1.346,1.346,0,0,0,.955.393,1.324,1.324,0,0,0,.955-.4L15.141,10.4a1.324,1.324,0,0,0,.4-.955A1.367,1.367,0,0,0,15.141,8.486ZM9.447,14.193l-6.093-6.1V3.354H8.093V3.347l6.093,6.093Z" transform="translate(-0.646 -0.646)"/><circle class="b" cx="1.016" cy="1.016" r="1.016" transform="translate(3.385 3.385)"/><path class="b" d="M8.9,11.888a1.393,1.393,0,0,0,.406.982l2.37,2.37,2.37-2.37a1.388,1.388,0,0,0-1.963-1.963l-.406.406-.406-.4a1.371,1.371,0,0,0-.982-.413A1.39,1.39,0,0,0,8.9,11.888Z" transform="translate(-2.874 -3.391)"/></svg>