<svg width="24" height="24" viewBox="0 0 24 24" fill="none" xmlns="http://www.w3.org/2000/svg">
<path d="M16.1743 19.9551C19.9695 19.9551 23.1332 17.2534 23.8482 13.6685L15.2085 12.7026L16.1743 19.9551Z" fill="#00CCB3"/>
<path d="M8.50049 13.6685C9.21547 17.2535 12.3792 19.9551 16.1744 19.9551V12.7026L8.50049 13.6685Z" fill="#00EE8A"/>
<path d="M23.8482 10.5908C23.1332 7.00586 19.9694 4.3042 16.1743 4.3042L15.2085 11.5566L23.8482 10.5908Z" fill="#00CCB3"/>
<path d="M16.1744 4.3042C12.3792 4.3042 9.21547 7.00586 8.50049 10.5908L16.1744 11.5566V4.3042Z" fill="#00EE8A"/>
<path d="M23.8482 10.5908H16.1743L15.2085 12.1298L16.1743 13.6687H23.8482C23.9474 13.1711 23.9999 12.6566 23.9999 12.1298C23.9999 11.603 23.9474 11.0884 23.8482 10.5908Z" fill="#00969B"/>
<path d="M16.1742 10.5908H8.50031C8.40108 11.0884 8.34863 11.603 8.34863 12.1298C8.34863 12.6566 8.40108 13.1711 8.50031 13.6687H16.1742V10.5908Z" fill="#00CCB3"/>
<path d="M10.9766 2.00049L4.94971 12.5069L10.8632 13.6685L13.3364 7.69762C14.258 5.47276 13.2015 2.92205 10.9766 2.00049Z" fill="#FABF24"/>
<path d="M10.9765 2.00053C8.75163 1.07897 6.20097 2.1355 5.27941 4.36035L2.80615 10.3312L6.10367 13.7646L10.9765 2.00053Z" fill="#FFE399"/>
<path d="M2.69287 21.9994C4.91772 22.9209 7.46839 21.8644 8.39 19.6395L10.8632 13.6687L6.83473 12L4.03219 15.3803L2.69287 21.9994Z" fill="#E50058"/>
<path d="M2.80626 10.3311L0.333051 16.3019C-0.58851 18.5268 0.468021 21.0775 2.69287 21.9991L6.83473 11.9997L2.80626 10.3311Z" fill="#FF415B"/>
</svg>
