<svg xmlns="http://www.w3.org/2000/svg" width="11" height="11" viewBox="0 0 11 11"><defs><style>.a{fill:#da8924;}</style></defs><g transform="translate(0)"><g transform="translate(0 0)"><path class="a" d="M10.607,2.75H8.643V.393A.393.393,0,0,0,8.25,0H.393A.393.393,0,0,0,0,.393V9.429A1.571,1.571,0,0,0,1.571,11H9.429A1.571,1.571,0,0,0,11,9.429V3.143A.393.393,0,0,0,10.607,2.75ZM3.143,1.964H5.5a.393.393,0,1,1,0,.786H3.143a.393.393,0,1,1,0-.786ZM6.679,9.429H1.964a.393.393,0,1,1,0-.786H6.679a.393.393,0,1,1,0,.786Zm0-1.571H1.964a.393.393,0,1,1,0-.786H6.679a.393.393,0,1,1,0,.786Zm0-1.571H1.964a.393.393,0,0,1,0-.786H6.679a.393.393,0,0,1,0,.786Zm0-1.571H1.964a.393.393,0,1,1,0-.786H6.679a.393.393,0,1,1,0,.786Zm3.536,4.714a.786.786,0,1,1-1.571,0V3.536h1.571V9.429Z" transform="translate(0 0)"/></g></g></svg>