<svg width="28" height="28" viewBox="0 0 28 28" fill="none" xmlns="http://www.w3.org/2000/svg">
<g clip-path="url(#clip0)">
<path d="M7.42877 10.6845C7.34268 10.6845 7.25702 10.6588 7.1836 10.6094C7.06385 10.5276 6.99174 10.3926 6.99174 10.2475V9.81049H6.11769C5.87601 9.81049 5.68066 9.61514 5.68066 9.37346V3.69386C5.68066 3.45219 5.87601 3.25684 6.11769 3.25684H12.6705C12.9121 3.25684 13.1075 3.45219 13.1075 3.69386C13.1075 3.93554 12.9121 4.13089 12.6705 4.13089H6.55472V8.93643H7.42877C7.67045 8.93643 7.8658 9.13178 7.8658 9.37346V9.60202L9.45177 8.96746C9.50334 8.94692 9.5584 8.93643 9.6139 8.93643H9.61434L12.6713 8.94168C12.9126 8.94211 13.1079 9.1379 13.1075 9.37958C13.1071 9.62082 12.9117 9.81573 12.6705 9.81573C12.6705 9.81573 12.67 9.81573 12.6696 9.81573L9.69737 9.81049L7.59091 10.6535C7.5389 10.6745 7.48383 10.6845 7.42877 10.6845Z" fill="#B7B7B7"/>
<path d="M12.6763 0.631348V3.6949V9.37625V11.1287L19.2317 11.12L21.8538 11.994V11.12H23.1649V0.631348H12.6763Z" fill="url(#paint0_linear)"/>
<path d="M12.676 3.69482V9.37617H12.6716L9.61682 9.3718L7.43168 10.2459V9.3718H6.12061V3.69482H12.6716H12.676Z" fill="#B7B7B7"/>
<path d="M25.7824 27.7272V27.7748H21.4121V27.7272L22.2862 24.668H23.5972C24.8078 24.668 25.7824 25.6469 25.7824 26.8531V27.7272Z" fill="#E6E9ED"/>
<path d="M23.5972 24.668H22.2861C23.4963 24.6688 24.47 25.6469 24.47 26.8531V27.7272V27.7748H25.7823V27.7272V26.8531C25.7823 25.6473 24.8078 24.668 23.5972 24.668Z" fill="#CCD1D9"/>
<path d="M24.4715 17.6925H16.6094V14.1792C16.6094 13.6985 17.0027 13.3052 17.4834 13.3052H23.6062C24.0873 13.3052 24.4802 13.6985 24.4802 14.1792V17.6925H24.4715Z" fill="#E6E9ED"/>
<path d="M23.6058 13.3052H22.2935C22.7746 13.3052 23.1675 13.6985 23.1675 14.1792V17.6925H24.4712H24.4799V14.1792C24.4799 13.6989 24.0866 13.3052 23.6058 13.3052Z" fill="#CCD1D9"/>
<path d="M20.5381 23.3566C21.167 23.3566 21.7618 23.208 22.2863 22.9453V24.6676L21.4122 25.1047L20.5381 24.6676L19.6641 25.1047L18.79 24.6676V22.9453C19.3145 23.208 19.9088 23.3566 20.5381 23.3566Z" fill="#FABF24"/>
<path d="M19.6637 27.7272V27.7748H15.2935V27.7272V26.8531C15.2935 25.6469 16.2724 24.668 17.4786 24.668H18.7897L19.6637 27.7272Z" fill="#E6E9ED"/>
<path d="M24.4715 17.6929V19.4239C24.4715 20.9662 23.5799 22.3039 22.2863 22.9459C21.7619 23.209 21.1671 23.3572 20.5382 23.3572C19.9089 23.3572 19.3145 23.2086 18.7901 22.9459C17.4965 22.3039 16.605 20.9666 16.605 19.4239V19.406V17.6929H16.6094H24.4715Z" fill="#EAC6BB"/>
<path d="M23.1591 17.6929V19.4239C23.1591 20.9662 22.2676 22.3039 20.974 22.9459C20.6366 23.1151 20.2682 23.23 19.8818 23.296C20.096 23.3318 20.3136 23.3576 20.5382 23.3576C21.1671 23.3576 21.7619 23.209 22.2864 22.9464C23.58 22.3044 24.4715 20.9671 24.4715 19.4244V17.6933H23.1591V17.6929Z" fill="#D3B1A9"/>
<path d="M19.6641 27.7272L18.79 24.668L19.6641 25.105L20.5381 24.668L21.4122 25.105L22.2863 24.668L21.4122 27.7272V27.7752H19.6641V27.7272Z" fill="#F2994A"/>
<path d="M11.365 18.1733V19.4718C11.365 21.014 10.4735 22.3518 9.17988 22.9946C8.65545 23.2568 8.05672 23.405 7.43177 23.405C6.80683 23.405 6.2081 23.2564 5.68367 22.9946C4.39444 22.3561 3.50728 21.028 3.49854 19.494V19.4718V18.1733L4.80961 17.2866C4.80961 17.2866 6.12506 17.7236 7.65029 17.7236C9.17551 17.7236 10.0539 17.2866 10.0539 17.2866L11.365 18.1733Z" fill="#EAC6BB"/>
<path d="M10.0535 17.2866L10.0522 17.2875V19.4718C10.0522 21.014 9.16063 22.3518 7.86703 22.9946C7.53008 23.1629 7.1608 23.2778 6.7749 23.3438C6.98948 23.3805 7.20756 23.4054 7.43132 23.4054C8.05626 23.4054 8.65499 23.2568 9.17942 22.9951C10.473 22.3522 11.3646 21.0149 11.3646 19.4722V18.1738L10.0535 17.2866Z" fill="#D3B1A9"/>
<path d="M12.6761 26.901V27.775H2.1875V26.901C2.1875 25.6948 3.16644 24.7158 4.37263 24.7158H5.68371L6.55777 25.1528L7.43182 24.7158L8.30587 25.1528L9.17992 24.7158H10.491C11.6972 24.7158 12.6761 25.6948 12.6761 26.901Z" fill="#F2994A"/>
<path d="M10.4908 24.7158H9.17969C10.385 24.7167 11.3635 25.6948 11.3635 26.901V27.775H12.6759V26.901C12.6759 25.6948 11.697 24.7158 10.4908 24.7158Z" fill="#E98831"/>
<path d="M7.4317 23.405C8.05665 23.405 8.65537 23.2564 9.17981 22.9946V24.7161L8.30575 25.1531L7.4317 24.7161L6.55765 25.1531L5.68359 24.7161V22.9946C6.20803 23.2564 6.80675 23.405 7.4317 23.405Z" fill="#FABF24"/>
<path d="M11.365 16.8497V18.1735L10.0539 17.2868C10.0539 17.2868 9.17551 17.7238 7.65029 17.7238C6.12506 17.7238 4.80961 17.2868 4.80961 17.2868L3.49854 18.1735V16.8497C3.49854 14.9181 5.06309 13.3535 6.99475 13.3535H9.61691V15.1016C10.5827 15.1016 11.365 15.8843 11.365 16.8497Z" fill="#965353"/>
<path d="M9.61674 16.4127C9.85798 16.4127 10.0538 16.6089 10.0538 16.8497V17.2868L11.3648 18.1735V16.8497C11.3648 15.8843 10.5826 15.1016 9.61674 15.1016V13.3535H8.30566V15.1016C8.30566 15.8262 8.89259 16.4127 9.61674 16.4127Z" fill="#844747"/>
<path d="M21.8518 12.4333C21.8055 12.4333 21.7588 12.4258 21.7137 12.4105L19.1584 11.5592L12.6743 11.5645H12.6738C12.558 11.5645 12.4466 11.5186 12.3649 11.4364C12.2831 11.3542 12.2368 11.2437 12.2368 11.1274V0.631362C12.2368 0.389687 12.4322 0.194336 12.6738 0.194336H23.1629C23.4046 0.194336 23.5999 0.389687 23.5999 0.631362V11.1222C23.5999 11.3639 23.4046 11.5592 23.1629 11.5592H22.2893L22.2889 11.9967C22.2889 12.137 22.2211 12.2689 22.1071 12.3511C22.0319 12.4053 21.9423 12.4333 21.8518 12.4333ZM19.2292 10.6852C19.276 10.6852 19.3228 10.693 19.3673 10.7079L21.4152 11.3905L21.4157 11.1222C21.4161 10.8809 21.6115 10.6856 21.8527 10.6856H22.7259V1.06839H13.1109V10.69L19.2292 10.6852Z" fill="url(#paint1_linear)"/>
<path d="M20.5376 16.8076C20.2959 16.8076 20.1006 16.6122 20.1006 16.3706V14.6172C20.1006 14.3755 20.2959 14.1802 20.5376 14.1802C20.7793 14.1802 20.9746 14.3755 20.9746 14.6172V16.3706C20.9746 16.6122 20.7793 16.8076 20.5376 16.8076Z" fill="#ED5565"/>
<path d="M21.4116 15.9366H19.6626C19.4209 15.9366 19.2256 15.7412 19.2256 15.4995C19.2256 15.2579 19.4209 15.0625 19.6626 15.0625H21.4116C21.6533 15.0625 21.8486 15.2579 21.8486 15.4995C21.8486 15.7412 21.6533 15.9366 21.4116 15.9366Z" fill="#ED5565"/>
<g clip-path="url(#clip1)">
<path d="M18.8979 3.76562H17.4092V5.49923H15.6724V6.98794H17.4092V8.72154H18.8979V6.98794H20.6347V5.49923H18.8979V3.76562Z" fill="white"/>
</g>
</g>
<defs>
<linearGradient id="paint0_linear" x1="20.23" y1="-28.4571" x2="31.9378" y2="-26.6888" gradientUnits="userSpaceOnUse">
<stop stop-color="#FABF24"/>
<stop offset="1" stop-color="#DA8924"/>
</linearGradient>
<linearGradient id="paint1_linear" x1="20.4204" y1="-31.1373" x2="33.101" y2="-29.2109" gradientUnits="userSpaceOnUse">
<stop stop-color="#FABF24"/>
<stop offset="1" stop-color="#DA8924"/>
</linearGradient>
<clipPath id="clip0">
<rect width="27.9697" height="27.9697" fill="white"/>
</clipPath>
<clipPath id="clip1">
<rect x="15.1758" y="3.26611" width="5.95484" height="5.95484" rx="2.97742" fill="white"/>
</clipPath>
</defs>
</svg>
