<svg width="24" height="24" viewBox="0 0 24 24" fill="none" xmlns="http://www.w3.org/2000/svg">
<g clip-path="url(#clip0)">
<path d="M22.2444 6.14095H19.371C18.8423 6.14095 18.4136 5.71228 18.4136 5.18348V0.957469C18.4136 0.428672 18.8423 0 19.371 0H22.2444C22.7731 0 23.2019 0.428672 23.2019 0.957469V5.18353C23.2019 5.71223 22.7732 6.14095 22.2444 6.14095Z" fill="#51B3DA"/>
<path d="M19.3708 24H1.75581C1.22706 24 0.79834 23.5713 0.79834 23.0425V0.957469C0.79834 0.428672 1.22701 0 1.75581 0H19.3709C19.8996 0 20.3283 0.428672 20.3283 0.957469V23.0426C20.3283 23.5713 19.8996 24 19.3708 24Z" fill="#FFD76D"/>
<path d="M19.371 0H10.5635V24H19.371C19.8997 24 20.3284 23.5713 20.3284 23.0425V0.957469C20.3285 0.428672 19.8998 0 19.371 0Z" fill="#FCC944"/>
<path d="M12.9554 6.27973H11.5208V4.84516C11.5208 4.31641 11.0922 3.8877 10.5634 3.8877C10.0346 3.8877 9.6059 4.31637 9.6059 4.84516V6.27973H8.17134C7.64259 6.27973 7.21387 6.7084 7.21387 7.2372C7.21387 7.76595 7.64254 8.19466 8.17134 8.19466H9.6059V9.62923C9.6059 10.158 10.0346 10.5867 10.5634 10.5867C11.0922 10.5867 11.5208 10.158 11.5208 9.62923V8.19466H12.9554C13.4842 8.19466 13.9129 7.76599 13.9129 7.2372C13.9128 6.7084 13.4842 6.27973 12.9554 6.27973Z" fill="#FF5E5B"/>
<path d="M15.8952 14.5243H5.23139C4.70264 14.5243 4.27393 14.0956 4.27393 13.5668C4.27393 13.038 4.7026 12.6094 5.23139 12.6094H15.8952C16.4239 12.6094 16.8526 13.038 16.8526 13.5668C16.8526 14.0956 16.424 14.5243 15.8952 14.5243Z" fill="#FABF24"/>
<path d="M15.8952 17.4628H5.23139C4.70264 17.4628 4.27393 17.0341 4.27393 16.5053C4.27393 15.9765 4.7026 15.5479 5.23139 15.5479H15.8952C16.4239 15.5479 16.8526 15.9765 16.8526 16.5053C16.8526 17.0341 16.424 17.4628 15.8952 17.4628Z" fill="#FABF24"/>
<path d="M15.8952 20.4008H5.23139C4.70264 20.4008 4.27393 19.9721 4.27393 19.4433C4.27393 18.9145 4.7026 18.4858 5.23139 18.4858H15.8952C16.4239 18.4858 16.8526 18.9145 16.8526 19.4433C16.8526 19.9721 16.424 20.4008 15.8952 20.4008Z" fill="#FABF24"/>
<path d="M12.9555 6.27973H11.5209V4.84516C11.5209 4.31641 11.0923 3.8877 10.5635 3.8877V10.5866C11.0922 10.5866 11.5209 10.1579 11.5209 9.62909V8.19452H12.9555C13.4843 8.19452 13.913 7.76585 13.913 7.23705C13.9129 6.7084 13.4843 6.27973 12.9555 6.27973Z" fill="#FF423D"/>
<path d="M15.8954 12.6099H10.5635V14.5248H15.8954C16.4241 14.5248 16.8528 14.0961 16.8528 13.5673C16.8528 13.0385 16.4242 12.6099 15.8954 12.6099Z" fill="#FFB700"/>
<path d="M15.8954 15.5483H10.5635V17.4632H15.8954C16.4241 17.4632 16.8528 17.0346 16.8528 16.5058C16.8528 15.977 16.4242 15.5483 15.8954 15.5483Z" fill="#FFB700"/>
<path d="M15.8954 18.4868H10.5635V20.4017H15.8954C16.4241 20.4017 16.8528 19.973 16.8528 19.4442C16.8528 18.9154 16.4242 18.4868 15.8954 18.4868Z" fill="#FFB700"/>
</g>
<defs>
<clipPath id="clip0">
<rect width="24" height="24" fill="white"/>
</clipPath>
</defs>
</svg>
