<svg width="8" height="9" viewBox="0 0 8 9" fill="none" xmlns="http://www.w3.org/2000/svg">
<path d="M7.13262 2.04504C7.13262 2.17095 7.1067 2.26354 7.05485 2.32279C7.01041 2.38204 6.93634 2.41167 6.83265 2.41167H6.37714C6.38455 2.47092 6.38825 2.5598 6.38825 2.67831L6.37714 3.02272H6.83265C6.93634 3.02272 7.01041 3.05235 7.05485 3.1116C7.1067 3.17085 7.13262 3.26344 7.13262 3.38935V3.46712C7.13262 3.59303 7.1067 3.68562 7.05485 3.74487C7.01041 3.79672 6.93634 3.82264 6.83265 3.82264H6.17716C5.94755 4.3337 5.60685 4.68922 5.15504 4.8892C4.70323 5.08177 4.28846 5.17806 3.91072 5.17806H2.54419V7.70003C2.54419 7.91482 2.34791 8.02222 1.95536 8.02222H1.67761C1.28506 8.02222 1.08878 7.91482 1.08878 7.70003V3.82264H0.5555C0.451807 3.82264 0.374037 3.79672 0.32219 3.74487C0.27775 3.68562 0.25553 3.59303 0.25553 3.46712V3.38935C0.25553 3.26344 0.27775 3.17085 0.32219 3.1116C0.374037 3.05235 0.451807 3.02272 0.5555 3.02272H1.08878V2.41167H0.5555C0.451807 2.41167 0.374037 2.38204 0.32219 2.32279C0.27775 2.26354 0.25553 2.17095 0.25553 2.04504V1.96727C0.25553 1.84136 0.27775 1.75248 0.32219 1.70063C0.374037 1.64138 0.451807 1.61175 0.5555 1.61175H1.08878V0.63407C1.08878 0.493343 1.11841 0.38965 1.17766 0.32299C1.24432 0.25633 1.34801 0.223 1.48874 0.223H3.79962C4.31809 0.223 4.79952 0.32299 5.24392 0.52297C5.69573 0.715543 6.02162 1.07847 6.2216 1.61175H6.83265C6.93634 1.61175 7.01041 1.64138 7.05485 1.70063C7.1067 1.75248 7.13262 1.84136 7.13262 1.96727V2.04504ZM3.78851 3.92263C4.06996 3.92263 4.32179 3.83005 4.54399 3.64488C4.7736 3.45971 4.8884 3.13752 4.8884 2.67831C4.8884 2.23391 4.7736 1.92283 4.54399 1.74507C4.32179 1.5599 4.05145 1.46732 3.73296 1.46732H2.54419V3.92263H3.78851Z" fill="#3B823E"/>
</svg>
