<svg xmlns="http://www.w3.org/2000/svg" width="14.014" height="14.028" viewBox="0 0 14.014 14.028"><defs><style>.a{fill:#a8a8a8;}</style></defs><g transform="translate(-2.077 -54.05)"><g transform="translate(1.814 54.051)"><g transform="translate(4.911 -0.001)"><g transform="translate(0 0)"><path class="a" d="M178.2,1.081a3.7,3.7,0,0,0-5.232,0l-3.05,3.05,3.463,3.463A4.047,4.047,0,0,1,177.6,6.96l.592-.647A3.7,3.7,0,0,0,178.2,1.081Z" transform="translate(-169.915 0.001)"/></g></g><g transform="translate(0.263 4.712)"><g transform="translate(0)"><path class="a" d="M7.8,175.476,4.33,172.008,1.344,175A3.719,3.719,0,0,0,6.6,180.256l.605-.608a4.046,4.046,0,0,1,.589-4.172Z" transform="translate(-0.263 -172.008)"/></g></g><g transform="translate(7.7 7.492)"><path class="a" d="M271.7,276.725a3.278,3.278,0,0,0,2.877,3.247v-6.494A3.278,3.278,0,0,0,271.7,276.725Z" transform="translate(-271.703 -273.478)"/></g><g transform="translate(11.399 7.492)"><path class="a" d="M406.722,273.478v6.494a3.271,3.271,0,0,0,0-6.494Z" transform="translate(-406.722 -273.478)"/></g></g></g></svg>