<svg xmlns="http://www.w3.org/2000/svg" width="17.329" height="17.329" viewBox="0 0 17.329 17.329"><defs><style>.a{fill:#a8a8a8;}</style></defs><g transform="translate(-0.008)"><path class="a" d="M8.673,0a8.665,8.665,0,1,0,8.664,8.66A8.663,8.663,0,0,0,8.673,0ZM9.29,13.481a1.02,1.02,0,0,1-.7.269,1.055,1.055,0,0,1-.715-.266.931.931,0,0,1-.306-.742.957.957,0,0,1,.3-.712,1,1,0,0,1,.725-.289.987.987,0,0,1,1,1A.939.939,0,0,1,9.29,13.481ZM11.8,7.26A3.063,3.063,0,0,1,11.248,8q-.319.313-1.146,1.051a4.741,4.741,0,0,0-.366.366,1.491,1.491,0,0,0-.2.289,1.392,1.392,0,0,0-.1.262q-.037.131-.111.46a.747.747,0,0,1-.8.7.818.818,0,0,1-.588-.228.9.9,0,0,1-.238-.678,2.5,2.5,0,0,1,.175-.978,2.47,2.47,0,0,1,.463-.726,10.622,10.622,0,0,1,.78-.742q.43-.376.621-.568a1.921,1.921,0,0,0,.322-.427,1.027,1.027,0,0,0,.131-.51,1.185,1.185,0,0,0-.4-.907A1.46,1.46,0,0,0,8.752,5a1.427,1.427,0,0,0-1.088.373,2.975,2.975,0,0,0-.591,1.1q-.229.759-.867.759a.853.853,0,0,1-.635-.265.812.812,0,0,1-.258-.574,2.431,2.431,0,0,1,.41-1.293,3.154,3.154,0,0,1,1.2-1.085,3.761,3.761,0,0,1,1.834-.43,3.913,3.913,0,0,1,1.72.36,2.787,2.787,0,0,1,1.152.978,2.4,2.4,0,0,1,.406,1.344A2.069,2.069,0,0,1,11.8,7.26Z"/></g></svg>