<svg width="22" height="23" viewBox="0 0 22 23" fill="none" xmlns="http://www.w3.org/2000/svg">
<g clip-path="url(#clip0)">
<path d="M20.0001 12.9954C19.4471 12.9954 19.0001 13.4434 19.0001 13.9954C19.0001 15.6494 17.654 16.9954 16 16.9954H7.99987V13.9954C7.99987 13.6114 7.77888 13.2604 7.43388 13.0944C7.08488 12.9284 6.67586 12.9743 6.37485 13.2144L1.37475 17.2145C1.13773 17.4045 0.999756 17.6915 0.999756 17.9955C0.999756 18.2995 1.13777 18.5865 1.37475 18.7765L6.37485 22.7766C6.55584 22.9205 6.77688 22.9956 6.99985 22.9956C7.14684 22.9956 7.29586 22.9626 7.43384 22.8966C7.77884 22.7306 7.99983 22.3796 7.99983 21.9955V18.9955H16C18.757 18.9955 21.0001 16.7524 21.0001 13.9954C21.0001 13.4434 20.5531 12.9954 20.0001 12.9954Z" fill="#74C946"/>
<path d="M2.00027 10.9954C2.55329 10.9954 3.0003 10.5474 3.0003 9.99536C3.0003 8.34134 4.34632 6.99532 6.00035 6.99532H14.0005V9.99536C14.0005 10.3794 14.2215 10.7304 14.5665 10.8964C14.7055 10.9624 14.8535 10.9954 15.0005 10.9954C15.2235 10.9954 15.4445 10.9204 15.6255 10.7764L20.6256 6.7763C20.8626 6.58629 21.0006 6.2993 21.0006 5.99529C21.0006 5.69128 20.8626 5.40429 20.6256 5.21427L15.6255 1.2142C15.3255 0.974215 14.9115 0.928195 14.5665 1.09419C14.2215 1.26018 14.0005 1.6112 14.0005 1.99521V4.99526H6.00035C3.2433 4.99526 1.00024 7.23831 1.00024 9.99536C1.00024 10.5474 1.44726 10.9954 2.00027 10.9954Z" fill="#74C946"/>
</g>
<defs>
<clipPath id="clip0">
<rect width="22" height="22" fill="white" transform="translate(0 0.995605)"/>
</clipPath>
</defs>
</svg>
