<svg xmlns="http://www.w3.org/2000/svg" width="22.1" height="13.864" viewBox="0 0 22.1 13.864"><defs><style>.a{fill:#fff;}</style></defs><g transform="translate(22.1 -172.15) rotate(90)"><g transform="translate(172.15)"><path class="a" d="M175.923,10.771V.621a.621.621,0,0,0-1.242,0v10.15a3.154,3.154,0,0,0,0,6.184v4.518a.621.621,0,0,0,1.242,0V16.956a3.154,3.154,0,0,0,0-6.184Zm-.621,5a1.91,1.91,0,1,1,1.909-1.91A1.911,1.911,0,0,1,175.3,15.773Z" transform="translate(-172.15)"/><path class="a" d="M340.223,5.563V.621a.621.621,0,1,0-1.242,0V5.563a3.154,3.154,0,0,0,0,6.184v9.732a.621.621,0,1,0,1.242,0V11.742a3.151,3.151,0,0,0,0-6.179Zm-.621,5a1.91,1.91,0,1,1,1.909-1.91A1.911,1.911,0,0,1,339.6,10.564Z" transform="translate(-328.89)"/></g></g></svg>