<svg width="37" height="37" viewBox="0 0 37 37" fill="none" xmlns="http://www.w3.org/2000/svg">
<circle cx="18.5" cy="18.5" r="18.5" fill="#D2EDD3"/>
<path d="M26.8089 13.7051C26.5155 13.5729 26.1896 13.53 25.8719 13.5815C25.5542 13.633 25.2587 13.7767 25.022 13.9948L22.9454 15.9266V14.5261C22.9454 13.7576 22.6401 13.0205 22.0967 12.4771C21.5532 11.9337 20.8162 11.6284 20.0477 11.6284H11.3547C10.5862 11.6284 9.84916 11.9337 9.30574 12.4771C8.76232 13.0205 8.45703 13.7576 8.45703 14.5261V22.2532C8.45703 23.0217 8.76232 23.7587 9.30574 24.3022C9.84916 24.8456 10.5862 25.1509 11.3547 25.1509H20.0477C20.8162 25.1509 21.5532 24.8456 22.0967 24.3022C22.6401 23.7587 22.9454 23.0217 22.9454 22.2532V20.8527L25.0317 22.7844C25.3388 23.0625 25.7378 23.2172 26.1521 23.2191C26.382 23.2185 26.6092 23.1692 26.8186 23.0742C27.1035 22.959 27.3475 22.7614 27.5196 22.5068C27.6916 22.2521 27.7838 21.952 27.7845 21.6447V15.1346C27.7831 14.8262 27.6894 14.5252 27.5156 14.2705C27.3417 14.0157 27.0956 13.8188 26.8089 13.7051Z" fill="#3B823E"/>
</svg>
