<svg width="18" height="19" viewBox="0 0 18 19" fill="none" xmlns="http://www.w3.org/2000/svg">
<g clip-path="url(#clip0)">
<path d="M8.99981 6.61353C7.40158 6.61353 6.10303 7.91208 6.10303 9.51031C6.10303 11.1085 7.40158 12.4071 8.99981 12.4071C10.598 12.4071 11.8966 11.1085 11.8966 9.51031C11.8966 7.91208 10.598 6.61353 8.99981 6.61353ZM8.78005 8.65126C8.42045 8.65126 8.12079 8.95093 8.12079 9.31053H7.16185C7.18183 8.41153 7.90103 7.69233 8.78005 7.69233V8.65126Z" fill="#74C946"/>
<path d="M17.7902 8.91103C16.8113 7.69238 13.3152 3.7168 9 3.7168C4.68479 3.7168 1.18868 7.69238 0.209767 8.91103C-0.0699223 9.25065 -0.0699223 9.75009 0.209767 10.1097C1.18868 11.3283 4.68479 15.3039 9 15.3039C13.3152 15.3039 16.8113 11.3283 17.7902 10.1097C18.0699 9.77007 18.0699 9.27063 17.7902 8.91103ZM9 13.7057C6.68258 13.7057 4.80466 11.8278 4.80466 9.51036C4.80466 7.19293 6.68258 5.31502 9 5.31502C11.3174 5.31502 13.1953 7.19293 13.1953 9.51036C13.1953 11.8278 11.3174 13.7057 9 13.7057Z" fill="#74C946"/>
</g>
<defs>
<clipPath id="clip0">
<rect width="18" height="18" fill="white" transform="translate(0 0.510254)"/>
</clipPath>
</defs>
</svg>
