<svg width="29" height="29" viewBox="0 0 29 29" fill="none" xmlns="http://www.w3.org/2000/svg">
<path fill-rule="evenodd" clip-rule="evenodd" d="M29 14.5C29 18.3456 27.4723 22.0338 24.753 24.753C22.0338 27.4723 18.3456 29 14.5 29C10.6544 29 6.96623 27.4723 4.24695 24.753C1.52767 22.0338 0 18.3456 0 14.5C0 10.6544 1.52767 6.96623 4.24695 4.24695C6.96623 1.52767 10.6544 0 14.5 0C18.3456 0 22.0338 1.52767 24.753 4.24695C27.4723 6.96623 29 10.6544 29 14.5ZM14.5 7.25C14.2709 7.25013 14.0444 7.29824 13.835 7.39124C13.6257 7.48424 13.4381 7.62007 13.2844 7.78996C13.1308 7.95986 13.0144 8.16006 12.9428 8.37768C12.8712 8.59529 12.846 8.82549 12.8687 9.05344L13.5031 15.4099C13.5244 15.6596 13.6387 15.8922 13.8233 16.0617C14.0079 16.2312 14.2494 16.3253 14.5 16.3253C14.7506 16.3253 14.9921 16.2312 15.1767 16.0617C15.3613 15.8922 15.4756 15.6596 15.4969 15.4099L16.1312 9.05344C16.154 8.82549 16.1288 8.59529 16.0572 8.37768C15.9856 8.16006 15.8692 7.95986 15.7156 7.78996C15.5619 7.62007 15.3743 7.48424 15.165 7.39124C14.9556 7.29824 14.7291 7.25013 14.5 7.25ZM14.5036 18.125C14.0229 18.125 13.5619 18.316 13.222 18.6559C12.8821 18.9958 12.6911 19.4568 12.6911 19.9375C12.6911 20.4182 12.8821 20.8792 13.222 21.2191C13.5619 21.559 14.0229 21.75 14.5036 21.75C14.9843 21.75 15.4453 21.559 15.7853 21.2191C16.1252 20.8792 16.3161 20.4182 16.3161 19.9375C16.3161 19.4568 16.1252 18.9958 15.7853 18.6559C15.4453 18.316 14.9843 18.125 14.5036 18.125Z" fill="#EB5757"/>
</svg>
